<?xml version="1.0" encoding="UTF-8"?>
<svg id="Layer_2" data-name="Layer 2" xmlns="http://www.w3.org/2000/svg" viewBox="0 0 23 23">
  <defs>
    <style>
      .cls-1 {
        fill: #fff;
      }
    </style>
  </defs>
  <g id="_レイヤー_3" data-name="レイヤー 3">
    <g>
      <rect x="0" width="23" height="23" rx="5.29" ry="5.29"/>
      <g>
        <path class="cls-1" d="M12.14,9.34c.2-.23.37-.46.57-.65.64-.6,1.39-.9,2.26-.89.48,0,.96.04,1.42.17,1.06.31,1.68,1.04,1.98,2.08.22.78.26,1.58.26,2.38,0,1.69,0,3.39,0,5.08,0,.16-.04.2-.2.2-.87,0-1.74,0-2.62,0-.15,0-.19-.05-.19-.19,0-1.61,0-3.22,0-4.83,0-.4-.03-.81-.14-1.2-.21-.72-.73-1.09-1.48-1.05-1.03.05-1.57.57-1.7,1.62-.03.25-.05.5-.05.76,0,1.57,0,3.13,0,4.7,0,.16-.04.2-.2.2-.88,0-1.76,0-2.64,0-.14,0-.18-.04-.18-.18,0-3.1,0-6.2,0-9.3,0-.15.05-.19.2-.19.83,0,1.67,0,2.5,0,.15,0,.19.05.19.19,0,.37,0,.74,0,1.11Z"/>
        <path class="cls-1" d="M7.36,12.89c0,1.53,0,3.07,0,4.6,0,.17-.04.22-.22.22-.87,0-1.74,0-2.62,0-.14,0-.18-.03-.18-.18,0-3.11,0-6.21,0-9.32,0-.13.03-.17.17-.17.88,0,1.77,0,2.65,0,.17,0,.19.06.19.21,0,1.55,0,3.09,0,4.64Z"/>
        <path class="cls-1" d="M7.6,4.96c0,.96-.78,1.75-1.74,1.75-.95,0-1.74-.79-1.74-1.73,0-.96.78-1.75,1.74-1.75.95,0,1.74.78,1.74,1.73Z"/>
      </g>
    </g>
  </g>
</svg>