<?xml version="1.0" encoding="UTF-8"?>
<svg id="Layer_2" data-name="Layer 2" xmlns="http://www.w3.org/2000/svg" viewBox="0 0 23 23">
  <defs>
    <style>
      .cls-1 {
        fill: #ec1655;
      }

      .cls-2 {
        fill: #fff;
      }

      .cls-3 {
        fill: #0cbac6;
      }
    </style>
  </defs>
  <g id="_レイヤー_3" data-name="レイヤー 3">
    <g>
      <rect width="23" height="23" rx="5.29" ry="5.29"/>
      <g>
        <path class="cls-2" d="M8.49,15.39s.02.02.04.04c.11.09.19.21.3.31.33.29.71.45,1.14.48,1.02.07,1.91-.77,2.03-1.87,0-.05,0-.11,0-.16,0-3.32,0-6.64,0-9.96,0-.12.1-.22.22-.22.46,0,1.38,0,1.91,0,.05,0,.1,0,.15.02,0,0,0,0,0,0,.03.02.03.06.04.09.2.89.7,1.61,1.48,2.15.05.03.09.08.14.11.03.03.07.05.1.08.13.07.21.18.32.26.43.34.92.57,1.46.71.05.01.1.01.14.05,0,0,0,0,0,0,.03.03.03.07.03.11,0,.59,0,1.17,0,1.76,0,.13-.02.14-.16.14-.45,0-.9-.06-1.34-.15-.76-.16-1.45-.45-2.1-.86-.03-.02-.07-.07-.11-.05-.05.02-.02.08-.02.11,0,1.53,0,3.06,0,4.59,0,1.52-.61,3.04-1.8,3.98-.73.58-1.6.93-2.6,1.05-.99.11-1.93-.06-2.83-.47-.14-.07-.28-.15-.41-.24-.04-.03-.08-.07-.12-.1-.31-.24-.52-.55-.72-.87-.31-.49-.51-1.03-.61-1.59-.06-.32-.08-.65-.07-.98.06-1.05.43-2,1.15-2.81.6-.68,1.35-1.16,2.24-1.45.37-.12.75-.19,1.14-.22.07,0,.14-.02.22-.02.03,0,.07,0,.1.02,0,0,0,0,.01,0,.02.03.02.07.02.11,0,.59,0,1.19,0,1.78,0,.02,0,.04,0,.06,0,.06-.03.08-.08.06-.15-.05-.3-.07-.46-.08-.24-.01-.47.02-.7.11-.75.3-1.2.89-1.3,1.75-.09.85.21,1.53.86,2.02.05.04.11.08.16.13Z"/>
        <path class="cls-1" d="M6.6,17.54s.05.02.07.03c.53.32,1.1.54,1.72.63.31.05.62.07.93.05,1.04-.05,1.98-.4,2.79-1.07.78-.64,1.29-1.45,1.55-2.43.08-.31.13-.62.14-.94,0-.18.19-.55.19-.55,0,0,0-4.71,0-4.71v-.11c-.14-.01-.12.02-.1.03.56.38,1.16.67,1.82.85.36.1.72.16,1.09.2.16.01.31.01.47.02.07,0,.72-.07.72-.07v-.23s0-1.59,0-1.59c-.65-.03-.65-.07-.65-.1.14.02.28.05.42.06.09,0,.17.01.26.01.04,0,.06.01.06.06,0,.02-.09.05-.09.05v2.35c.08.07.08.07.01.07-.24,0-.48-.02-.72-.05-.49-.06-.96-.18-1.42-.36-.44-.17-.85-.39-1.24-.65-.02-.02-.64-.06-.64-.06v.11s.56,3.36.55,5.03c0,.89-.23,1.73-.71,2.48-.58.92-1.38,1.56-2.39,1.93-.62.22-1.26.31-1.91.26-1.11-.08-2.06-.5-2.88-1.25-.02-.02-.04-.04-.06-.07Z"/>
        <path class="cls-3" d="M13.85,4.1s-.07,0-.1-.1h-1.62q-.13.1-.13.22c0,3.3,0,6.6,0,9.9,0,.23-.02.46-.09.67-.25.77-.77,1.28-1.56,1.46-.85.19-1.57-.07-2.15-.72,0-.01-.02-.02-.02-.04.16.07.33.13.5.17.55.11,1.08.02,1.56-.27.55-.34.88-.84,1-1.48.02-.12.03-.24-.24-.37V3.62c.26-.15.24-.13.39-.62h2.29s.05,0,.05,0c.08.49.08.49.08.57,0,.18,0,.35.03.53Z"/>
        <path class="cls-3" d="M9.76,9.52c-.47.02-.92.09-1.36.24-.64.21-1.21.55-1.7,1-.65.6-1.09,1.33-1.34,2.18-.09.3-.14.61-.16.93-.01.19-.02.38,0,.57.03.52.14,1.03.34,1.52.22.54.53,1.03.94,1.46,0,0,.01.02.02.03-.09-.04-.17-.11-.24-.17-.76-.6-1.29-1.36-1.58-2.28-.1-.32-.17-.65-.2-.98-.02-.24-.03-.49,0-.73.04-.56.17-1.09.4-1.61.24-.53.57-1.01.99-1.42.49-.48,1.05-.83,1.69-1.07.4-.14.82-.23,1.24-.26.31-.02.62-.02.92.02.04,0,.07.01.07.06,0,.17,0,.34,0,.51Z"/>
        <path class="cls-1" d="M8.14,15.47c-.19-.08-.35-.21-.5-.35-.37-.36-.59-.79-.65-1.3-.12-1.07.56-2,1.49-2.28.4-.12.8-.13,1.2-.02.02,0,.04.02.07,0,.01-.03,0-.07.24-.1v-1.8c-.23-.03-.23-.07-.22-.1.23-.02.46,0,.69.03.04,0,.05.02.53.05v.05s0,2.39,0,2.39c-.49.03-.48.06-.5.09-.1-.02-.21-.05-.31-.07-.61-.09-1.17.06-1.65.44-.43.34-.69.78-.78,1.32-.09.57.02,1.1.35,1.57.01.02.03.04.04.06Z"/>
        <path class="cls-1" d="M15.43,6.45c-.23-.14-.43-.31-.62-.5-.5-.51-.82-1.12-.95-1.83,0,0,0-.01,0-.02.22-.01.43,0,.65,0,.04,0,.06.01.05.05,0,.01,0,.03,0,.04-.01.6.17,1.16.46,1.68.11.19.23.36.37.52.02.02.04.03.04.06Z"/>
        <path class="cls-3" d="M17.34,7.56c-.61-.13-1.16-.41-1.63-.83-.07-.06-.14-.12-.19-.2.02,0,.04.01.06.02.37.21.77.35,1.19.42.17.03.33.05.5.04.07,0,.07,0,.07.07,0,.16,0,.31,0,.47Z"/>
      </g>
    </g>
  </g>
</svg>