<?xml version="1.0" encoding="UTF-8"?>
<svg id="Layer_2" data-name="Layer 2" xmlns="http://www.w3.org/2000/svg" viewBox="0 0 23 23">
  <defs>
    <style>
      .cls-1 {
        fill: #fff;
      }
    </style>
  </defs>
  <g id="_レイヤー_3" data-name="レイヤー 3">
    <g>
      <rect width="23" height="23" rx="5.29" ry="5.29"/>
      <g>
        <path class="cls-1" d="M11.47,4.04c2.27,0,2.54,0,3.44.05.83.04,1.28.18,1.58.29.4.15.68.34.98.64s.48.58.64.98c.12.3.26.75.29,1.58.04.9.05,1.17.05,3.44s0,2.54-.05,3.44c-.04.83-.18,1.28-.29,1.58-.15.4-.34.68-.64.98s-.58.48-.98.64c-.3.12-.75.26-1.58.29-.9.04-1.17.05-3.44.05s-2.54,0-3.44-.05c-.83-.04-1.28-.18-1.58-.29-.4-.15-.68-.34-.98-.64-.3-.3-.48-.58-.64-.98-.12-.3-.26-.75-.29-1.58-.04-.9-.05-1.17-.05-3.44s0-2.54.05-3.44c.04-.83.18-1.28.29-1.58.15-.4.34-.68.64-.98.3-.3.58-.48.98-.64.3-.12.75-.26,1.58-.29.9-.04,1.17-.05,3.44-.05M11.47,2.5c-2.31,0-2.6,0-3.51.05-.91.04-1.52.19-2.07.4-.56.22-1.03.51-1.51.98-.47.47-.76.95-.98,1.51-.21.54-.35,1.16-.4,2.07-.04.91-.05,1.2-.05,3.51s0,2.6.05,3.51c.04.91.19,1.52.4,2.07.22.56.51,1.03.98,1.51.47.47.95.76,1.51.98.54.21,1.16.35,2.07.4.91.04,1.2.05,3.51.05s2.6,0,3.51-.05c.91-.04,1.52-.19,2.07-.4.56-.22,1.03-.51,1.51-.98.47-.47.76-.95.98-1.51.21-.54.35-1.16.4-2.07.04-.91.05-1.2.05-3.51s0-2.6-.05-3.51c-.04-.91-.19-1.52-.4-2.07-.22-.56-.51-1.03-.98-1.51-.47-.47-.95-.76-1.51-.98-.54-.21-1.16-.35-2.07-.4-.91-.04-1.2-.05-3.51-.05h0Z"/>
        <path class="cls-1" d="M11.47,6.64c-2.41,0-4.37,1.96-4.37,4.37s1.96,4.37,4.37,4.37,4.37-1.96,4.37-4.37-1.96-4.37-4.37-4.37ZM11.47,13.85c-1.57,0-2.84-1.27-2.84-2.84s1.27-2.84,2.84-2.84,2.84,1.27,2.84,2.84-1.27,2.84-2.84,2.84Z"/>
        <circle class="cls-1" cx="16.01" cy="6.47" r="1.02"/>
      </g>
    </g>
  </g>
</svg>