<?xml version="1.0" encoding="UTF-8"?>
<svg id="Layer_2" data-name="Layer 2" xmlns="http://www.w3.org/2000/svg" viewBox="0 0 23 23">
  <defs>
    <style>
      .cls-1 {
        fill: #fff;
      }
    </style>
  </defs>
  <g id="_レイヤー_3" data-name="レイヤー 3">
    <g>
      <rect width="23" height="23" rx="5.29" ry="5.29"/>
      <path class="cls-1" d="M20.7,6.51c-.22-.8-.85-1.44-1.65-1.65-1.46-.39-7.31-.39-7.31-.39,0,0-5.85,0-7.31.39-.8.22-1.44.85-1.65,1.65-.39,1.46-.39,4.5-.39,4.5,0,0,0,3.04.39,4.5.22.8.85,1.44,1.65,1.65,1.46.39,7.31.39,7.31.39,0,0,5.85,0,7.31-.39.8-.22,1.44-.85,1.65-1.65.39-1.46.39-4.5.39-4.5,0,0,0-3.04-.39-4.5ZM10,13.82v-5.61l4.86,2.81-4.86,2.81Z"/>
    </g>
  </g>
</svg>